<svg width="25" height="24" viewBox="0 0 25 24" fill="none" xmlns="http://www.w3.org/2000/svg">
<path d="M20.917 4.5H4.41699C4.21808 4.5 4.02731 4.57902 3.88666 4.71967C3.74601 4.86032 3.66699 5.05109 3.66699 5.25C3.66699 5.44891 3.74601 5.63968 3.88666 5.78033C4.02731 5.92098 4.21808 6 4.41699 6H5.16699V19.5C5.16699 19.8978 5.32503 20.2794 5.60633 20.5607C5.88764 20.842 6.26917 21 6.66699 21H18.667C19.0648 21 19.4463 20.842 19.7277 20.5607C20.009 20.2794 20.167 19.8978 20.167 19.5V6H20.917C21.1159 6 21.3067 5.92098 21.4473 5.78033C21.588 5.63968 21.667 5.44891 21.667 5.25C21.667 5.05109 21.588 4.86032 21.4473 4.71967C21.3067 4.57902 21.1159 4.5 20.917 4.5ZM18.667 19.5H6.66699V6H18.667V19.5ZM8.16699 2.25C8.16699 2.05109 8.24601 1.86032 8.38666 1.71967C8.52731 1.57902 8.71808 1.5 8.91699 1.5H16.417C16.6159 1.5 16.8067 1.57902 16.9473 1.71967C17.088 1.86032 17.167 2.05109 17.167 2.25C17.167 2.44891 17.088 2.63968 16.9473 2.78033C16.8067 2.92098 16.6159 3 16.417 3H8.91699C8.71808 3 8.52731 2.92098 8.38666 2.78033C8.24601 2.63968 8.16699 2.44891 8.16699 2.25Z" fill="#4C4C4C"/>
</svg>
